<?xml version="1.0" encoding="UTF-8"?>
<svg id="Calque_1" xmlns="http://www.w3.org/2000/svg" xmlns:xlink="http://www.w3.org/1999/xlink" version="1.1" viewBox="0 0 1000 1154">
  <!-- Generator: Adobe Illustrator 29.8.1, SVG Export Plug-In . SVG Version: 2.1.1 Build 2)  -->
  <defs>
    <style>
      .st0, .st1, .st2, .st3, .st4 {
        fill: none;
      }

      .st5 {
        fill: url(#dots);
      }

      .st1 {
        stroke: #60a5fa;
        stroke-opacity: .35;
      }

      .st1, .st2 {
        stroke-width: 6px;
      }

      .st6 {
        fill: #e5edff;
        font-size: 92px;
        letter-spacing: .02em;
      }

      .st6, .st3, .st4, .st7, .st8, .st9, .st10, .st11 {
        isolation: isolate;
      }

      .st6, .st9 {
        font-family: DejaVuSans-Bold, 'DejaVu Sans';
        font-weight: 700;
      }

      .st12 {
        fill: url(#Dégradé_sans_nom);
        stroke: #0b1220;
        stroke-width: 10px;
      }

      .st2 {
        stroke: #c0d4ff;
      }

      .st3 {
        opacity: .95;
        stroke: url(#Dégradé_sans_nom_3);
        stroke-linecap: square;
        stroke-width: 16px;
      }

      .st4 {
        opacity: .8;
        stroke: #22d3ee;
        stroke-dasharray: 10 8;
        stroke-width: 4px;
      }

      .st13 {
        fill: #60a5fa;
      }

      .st7 {
        fill: #a7b7e6;
        font-family: DejaVuSans, 'DejaVu Sans';
        font-size: 28px;
      }

      .st8 {
        fill: #7aa2f7;
        opacity: .18;
      }

      .st9 {
        fill: #93c5fd;
        font-size: 44px;
      }

      .st14 {
        opacity: .9;
      }

      .st15 {
        opacity: .85;
      }

      .st10 {
        fill: #0b1220;
        opacity: .6;
      }

      .st16 {
        fill: #14b8a6;
      }

      .st17 {
        fill: #1e293b;
      }

      .st11 {
        fill: url(#Dégradé_sans_nom_2);
        opacity: .7;
      }

      .st18 {
        filter: url(#shadow);
      }
    </style>
    <filter id="shadow" x="-20%" y="-20%" width="140%" height="140%">
      <feOffset dx="0" dy="10" in="SourceAlpha" result="off"/>
      <feGaussianBlur in="off" result="blur" stdDeviation="10"/>
      <feColorMatrix in="blur" result="shadow" values="0 0 0 0 0                                                      0 0 0 0 0                                                      0 0 0 0 0                                                      0 0 0 0.35 0"/>
      <feBlend in="SourceGraphic" in2="shadow"/>
    </filter>
    <linearGradient id="Dégradé_sans_nom" data-name="Dégradé sans nom" x1="-458.49" y1="1117.03" x2="-457.49" y2="1116.03" gradientTransform="translate(412691 1226531) scale(900 -1098)" gradientUnits="userSpaceOnUse">
      <stop offset="0" stop-color="#1b2a4e"/>
      <stop offset="1" stop-color="#0e1729"/>
    </linearGradient>
    <pattern id="dots" x="0" y="0" width="24" height="24" patternTransform="translate(3 -15317) scale(1 -1)" patternUnits="userSpaceOnUse" viewBox="0 0 24 24">
      <g>
        <rect class="st0" width="24" height="24"/>
        <circle class="st8" cx="2" cy="22" r="1.6"/>
      </g>
    </pattern>
    <linearGradient id="Dégradé_sans_nom_2" data-name="Dégradé sans nom 2" x1="-457.98" y1="1117.15" x2="-457.98" y2="1116.15" gradientTransform="translate(403521 282277) scale(880 -252.5)" gradientUnits="userSpaceOnUse">
      <stop offset="0" stop-color="#fff" stop-opacity=".35"/>
      <stop offset=".5" stop-color="#fff" stop-opacity=".08"/>
      <stop offset="1" stop-color="#fff" stop-opacity="0"/>
    </linearGradient>
    <linearGradient id="Dégradé_sans_nom_3" data-name="Dégradé sans nom 3" x1="-458.42" y1="1116.67" x2="-457.42" y2="1116.67" gradientTransform="translate(362261 246297) scale(790 -220)" gradientUnits="userSpaceOnUse">
      <stop offset="0" stop-color="#c0d4ff"/>
      <stop offset="1" stop-color="#89b4fa"/>
    </linearGradient>
  </defs>
  <g class="st18">
    <polygon id="hex" class="st12" points="500 28 950 289 950 865 500 1126 50 865 50 289 500 28"/>
    <rect class="st5" x="50" y="28" width="900" height="1098"/>
    <path class="st11" d="M60,310c200-150,680-150,880,0v140c-180-90-700-90-880,0v-140Z"/>
  </g>
  <g>
    <path class="st3" d="M110,740h190v-50h120v-60h100v-40h120v-50h120v-20h140"/>
    <g class="st14">
      <line class="st2" x1="330" y1="690" x2="350" y2="690"/>
      <line class="st2" x1="455" y1="630" x2="475" y2="630"/>
      <line class="st2" x1="705" y1="540" x2="725" y2="540"/>
    </g>
  </g>
  <g>
    <g class="st15">
      <circle class="st13" cx="220" cy="460" r="6"/>
      <circle class="st13" cx="260" cy="420" r="4"/>
      <circle class="st13" cx="300" cy="500" r="5"/>
      <circle class="st13" cx="350" cy="450" r="4"/>
      <circle class="st13" cx="390" cy="520" r="6"/>
      <circle class="st13" cx="430" cy="470" r="5"/>
      <circle class="st13" cx="470" cy="510" r="4"/>
    </g>
    <path class="st0" d=""/>
    <path class="st16" d="M487.33,409.72l52.67,10.28-39.83,35.97-12.85-46.25Z"/>
    <path class="st16" d="M540,420" marker-end="url(#arrow)"/>
    <path class="st0" d=""/>
    <path class="st16" d="M506.63,454.38l53.37,5.62-36.52,39.33-16.85-44.94Z"/>
    <path class="st16" d="M560,460" marker-end="url(#arrow)"/>
    <path class="st0" d=""/>
    <path class="st16" d="M467.38,429.48l52.62,10.52-39.99,35.78-12.63-46.31Z"/>
    <path class="st16" d="M520,440" marker-end="url(#arrow)"/>
    <line class="st4" x1="520" y1="400" x2="880" y2="500"/>
  </g>
  <g text-rendering="geometricPrecision">
    <text class="st6" transform="translate(226.93 350)"><tspan x="0" y="0">bigPLScox</tspan></text>
    <text class="st7" transform="translate(291.92 395)"><tspan x="0" y="0">High‑dimensional Cox via PLS</tspan></text>
  </g>
  <g>
    <circle class="st10" cx="500" cy="984.88" r="40"/>
    <circle class="st17" cx="500" cy="984.88" r="36"/>
    <text class="st9" transform="translate(483.06 996.88)"><tspan x="0" y="0">R</tspan></text>
  </g>
  <polygon class="st1" points="500 28 950 289 950 865 500 1126 50 865 50 289 500 28"/>
</svg>